<svg xmlns="http://www.w3.org/2000/svg" width="1221" height="149" viewBox="0 0 1221 149" fill="none">
<g clip-path="url(#clip0)">
<path d="M18.8326 28.9866C18.5766 28.9871 18.3279 28.901 18.127 28.7424C17.9261 28.5837 17.7847 28.3618 17.7258 28.1126C17.6669 27.8635 17.6939 27.6017 17.8025 27.3699C17.9112 27.138 18.095 26.9497 18.3241 26.8355C19.4094 26.2951 20.5653 25.91 21.7579 25.6913C21.906 25.6601 22.0589 25.6589 22.2075 25.6877C22.3561 25.7165 22.4975 25.7748 22.6233 25.859C22.749 25.9433 22.8567 26.0518 22.9399 26.1783C23.0231 26.3048 23.0801 26.4466 23.1077 26.5955C23.1353 26.7443 23.1328 26.8972 23.1004 27.0451C23.068 27.1929 23.0063 27.3328 22.919 27.4565C22.8318 27.5802 22.7206 27.6852 22.5922 27.7653C22.4637 27.8454 22.3206 27.899 22.1711 27.923C21.1854 28.1027 20.2301 28.4207 19.3332 28.8674C19.1777 28.9449 19.0064 28.9857 18.8326 28.9866V28.9866Z" fill="#C8C5C5"/>
<path d="M30.2465 66.3281C29.9454 66.3281 29.6567 66.2085 29.4438 65.9956C29.2309 65.7827 29.1113 65.494 29.1113 65.1929V57.3446C29.1113 57.0436 29.2309 56.7548 29.4438 56.5419C29.6567 56.3291 29.9454 56.2095 30.2465 56.2095C30.5475 56.2095 30.8362 56.3291 31.0491 56.5419C31.262 56.7548 31.3816 57.0436 31.3816 57.3446V65.1929C31.3816 65.494 31.262 65.7827 31.0491 65.9956C30.8362 66.2085 30.5475 66.3281 30.2465 66.3281Z" fill="#C8C5C5"/>
<path d="M35.4737 72.1H25.0179C24.7169 72.1 24.4282 71.9805 24.2153 71.7676C24.0024 71.5547 23.8828 71.266 23.8828 70.9649V65.1928C23.8828 64.8917 24.0024 64.603 24.2153 64.3901C24.4282 64.1772 24.7169 64.0576 25.0179 64.0576H35.4737C35.7747 64.0576 36.0635 64.1772 36.2763 64.3901C36.4892 64.603 36.6088 64.8917 36.6088 65.1928V70.9649C36.6088 71.266 36.4892 71.5547 36.2763 71.7676C36.0635 71.9805 35.7747 72.1 35.4737 72.1V72.1ZM26.1531 69.8298H34.3385V66.3279H26.1531V69.8298Z" fill="#C8C5C5"/>
<path d="M46.0149 69.2158H35.474C35.1729 69.2158 34.8842 69.0962 34.6713 68.8834C34.4585 68.6705 34.3389 68.3818 34.3389 68.0807C34.3389 67.7796 34.4585 67.4909 34.6713 67.278C34.8842 67.0652 35.1729 66.9456 35.474 66.9456H46.0149C46.3159 66.9456 46.6047 67.0652 46.8175 67.278C47.0304 67.4909 47.15 67.7796 47.15 68.0807C47.15 68.3818 47.0304 68.6705 46.8175 68.8834C46.6047 69.0962 46.3159 69.2158 46.0149 69.2158Z" fill="#C8C5C5"/>
<path d="M25.0176 69.2158H14.4779C14.1769 69.2158 13.8881 69.0962 13.6752 68.8834C13.4624 68.6705 13.3428 68.3818 13.3428 68.0807C13.3428 67.7796 13.4624 67.4909 13.6752 67.278C13.8881 67.0652 14.1769 66.9456 14.4779 66.9456H25.0176C25.3187 66.9456 25.6074 67.0652 25.8203 67.278C26.0332 67.4909 26.1528 67.7796 26.1528 68.0807C26.1528 68.3818 26.0332 68.6705 25.8203 68.8834C25.6074 69.0962 25.3187 69.2158 25.0176 69.2158Z" fill="#C8C5C5"/>
<path d="M47.6072 58.4888H12.8834C10.2844 58.4898 7.77565 57.5359 5.83394 55.8083C3.89224 54.0808 2.65298 51.7 2.35174 49.1185C2.05049 46.537 2.70826 43.9349 4.2 41.8066C5.69175 39.6784 7.91348 38.1724 10.4429 37.575C10.6421 36.15 11.0635 34.765 11.6915 33.4704C11.7569 33.3362 11.848 33.2163 11.9598 33.1173C12.0715 33.0184 12.2016 32.9424 12.3427 32.8938C12.4838 32.8451 12.6331 32.8248 12.7821 32.8338C12.931 32.8429 13.0767 32.8812 13.2109 32.9465C13.3451 33.0119 13.465 33.103 13.564 33.2148C13.6629 33.3265 13.7389 33.4566 13.7875 33.5977C13.8362 33.7388 13.8565 33.8881 13.8475 34.0371C13.8384 34.186 13.8001 34.3317 13.7348 34.4659C13.1041 35.7707 12.7218 37.1815 12.6076 38.6262C12.5861 38.8809 12.4792 39.1209 12.3043 39.3074C12.1294 39.4938 11.8967 39.6158 11.6439 39.6535C9.56191 39.9615 7.6738 41.0463 6.35927 42.6899C5.04474 44.3335 4.40129 46.4138 4.55834 48.5126C4.71539 50.6113 5.66129 52.5727 7.20579 54.0024C8.75029 55.432 10.7788 56.2238 12.8834 56.2185H47.6072C49.7092 56.2202 51.7341 55.4269 53.2756 53.9977C54.817 52.5686 55.7609 50.6093 55.918 48.5132C56.075 46.417 55.4335 44.3391 54.1221 42.6962C52.8108 41.0534 50.9267 39.9672 48.8479 39.6557C48.5996 39.6188 48.3706 39.5006 48.1966 39.3197C48.0227 39.1387 47.9136 38.9052 47.8864 38.6557C47.737 37.2697 47.2371 35.9445 46.4339 34.8051C45.6307 33.6656 44.5506 32.7494 43.2955 32.1428C42.0403 31.5362 40.6514 31.2591 39.2595 31.3376C37.8677 31.4162 36.5187 31.8478 35.3398 32.5918C35.1005 32.7425 34.8135 32.7985 34.5351 32.7487C34.2567 32.699 34.0069 32.5471 33.8346 32.3228C32.942 31.1617 31.8392 30.1786 30.5836 29.4248C30.4559 29.3477 30.3447 29.2462 30.2562 29.1262C30.1677 29.0061 30.1038 28.8698 30.068 28.725C30.0322 28.5803 30.0253 28.4298 30.0476 28.2824C30.07 28.1349 30.1211 27.9933 30.1982 27.8657C30.3538 27.6078 30.6056 27.4223 30.8979 27.3501C31.0427 27.3143 31.1931 27.3074 31.3406 27.3297C31.488 27.3521 31.6296 27.4032 31.7573 27.4803C32.9695 28.2096 34.0642 29.1186 35.0038 30.1762C36.4523 29.4461 38.0505 29.0621 39.6726 29.0546C41.2947 29.047 42.8965 29.416 44.3518 30.1325C45.807 30.849 47.0762 31.8935 48.0593 33.1838C49.0423 34.4741 49.7125 35.975 50.0171 37.5682C52.5505 38.1591 54.7782 39.661 56.2759 41.788C57.7736 43.915 58.4368 46.5186 58.1391 49.1029C57.8414 51.6872 56.6036 54.0718 54.6615 55.8026C52.7194 57.5334 50.2086 58.4894 47.6072 58.4888V58.4888Z" fill="#C8C5C5"/>
<path d="M53.7777 66.3281C53.4767 66.3281 53.1879 66.2085 52.9751 65.9956C52.7622 65.7827 52.6426 65.494 52.6426 65.1929V57.3446C52.6426 57.0436 52.7622 56.7548 52.9751 56.5419C53.1879 56.3291 53.4767 56.2095 53.7777 56.2095C54.0788 56.2095 54.3675 56.3291 54.5804 56.5419C54.7933 56.7548 54.9129 57.0436 54.9129 57.3446V65.1929C54.9129 65.494 54.7933 65.7827 54.5804 65.9956C54.3675 66.2085 54.0788 66.3281 53.7777 66.3281Z" fill="#C8C5C5"/>
<path d="M59.0061 72.1H48.5492C48.2481 72.1 47.9594 71.9805 47.7465 71.7676C47.5337 71.5547 47.4141 71.266 47.4141 70.9649V65.1928C47.4141 64.8917 47.5337 64.603 47.7465 64.3901C47.9594 64.1772 48.2481 64.0576 48.5492 64.0576H59.0061C59.3071 64.0576 59.5959 64.1772 59.8087 64.3901C60.0216 64.603 60.1412 64.8917 60.1412 65.1928V70.9649C60.1412 71.266 60.0216 71.5547 59.8087 71.7676C59.5959 71.9805 59.3071 72.1 59.0061 72.1ZM49.6843 69.8298H57.8709V66.3279H49.6843V69.8298Z" fill="#C8C5C5"/>
<path d="M69.5459 69.2158H59.0062C58.7052 69.2158 58.4164 69.0962 58.2036 68.8834C57.9907 68.6705 57.8711 68.3818 57.8711 68.0807C57.8711 67.7796 57.9907 67.4909 58.2036 67.278C58.4164 67.0652 58.7052 66.9456 59.0062 66.9456H69.5459C69.847 66.9456 70.1357 67.0652 70.3486 67.278C70.5615 67.4909 70.6811 67.7796 70.6811 68.0807C70.6811 68.3818 70.5615 68.6705 70.3486 68.8834C70.1357 69.0962 69.847 69.2158 69.5459 69.2158V69.2158Z" fill="#C8C5C5"/>
<path d="M48.5499 69.2158H38.0101C37.7091 69.2158 37.4204 69.0962 37.2075 68.8834C36.9946 68.6705 36.875 68.3818 36.875 68.0807C36.875 67.7796 36.9946 67.4909 37.2075 67.278C37.4204 67.0652 37.7091 66.9456 38.0101 66.9456H48.5499C48.8509 66.9456 49.1396 67.0652 49.3525 67.278C49.5654 67.4909 49.685 67.7796 49.685 68.0807C49.685 68.3818 49.5654 68.6705 49.3525 68.8834C49.1396 69.0962 48.8509 69.2158 48.5499 69.2158V69.2158Z" fill="#C8C5C5"/>
<path d="M71.1339 58.483H36.4203C36.1192 58.483 35.8305 58.3634 35.6176 58.1506C35.4048 57.9377 35.2852 57.649 35.2852 57.3479C35.2852 57.0468 35.4048 56.7581 35.6176 56.5452C35.8305 56.3324 36.1192 56.2128 36.4203 56.2128H71.1339C73.2358 56.2145 75.2607 55.4215 76.8025 53.9928C78.3442 52.564 79.2888 50.6052 79.4468 48.5092C79.6048 46.4132 78.9645 44.3349 77.6543 42.6912C76.3441 41.0475 74.461 39.96 72.3825 39.6466C72.135 39.609 71.9069 39.4907 71.7336 39.3101C71.5603 39.1294 71.4517 38.8965 71.4245 38.6477C71.2747 37.2605 70.7741 35.9344 69.97 34.7943C69.1658 33.6542 68.0845 32.7377 66.828 32.1312C65.5715 31.5247 64.1812 31.2482 62.7883 31.3278C61.3954 31.4074 60.0457 31.8404 58.8665 32.5861C58.6278 32.7362 58.3419 32.7921 58.0643 32.743C57.7867 32.6939 57.5373 32.5433 57.3647 32.3204C56.3472 30.9993 55.0622 29.9078 53.5939 29.1173C52.1256 28.3269 50.5069 27.8553 48.8438 27.7333C47.1807 27.6114 45.5106 27.8419 43.9427 28.4097C42.3748 28.9776 40.9444 29.87 39.7451 31.0287C39.5284 31.2366 39.2381 31.3501 38.9379 31.3445C38.6376 31.3388 38.3518 31.2144 38.1431 30.9985C37.9343 30.7825 37.8197 30.4927 37.8242 30.1924C37.8288 29.8921 37.9521 29.6059 38.1673 29.3963C39.5361 28.0736 41.1583 27.0414 42.9364 26.3618C44.7144 25.6822 46.6115 25.3692 48.5136 25.4416C50.4157 25.514 52.2836 25.9704 54.0048 26.7833C55.726 27.5961 57.265 28.7487 58.5293 30.1716C59.9783 29.4393 61.5776 29.0535 63.2011 29.0447C64.8246 29.0359 66.428 29.4043 67.8849 30.1209C69.3417 30.8375 70.6122 31.8827 71.5962 33.1741C72.5802 34.4654 73.2508 35.9677 73.5551 37.5625C76.089 38.1534 78.317 39.6558 79.8147 41.7834C81.3124 43.911 81.9752 46.5152 81.6768 49.1C81.3783 51.6847 80.1395 54.0694 78.1964 55.7997C76.2532 57.53 73.7414 58.4851 71.1395 58.483H71.1339Z" fill="#C8C5C5"/>
</g>
<path d="M706.833 107.987C706.577 107.987 706.328 107.901 706.127 107.742C705.926 107.584 705.785 107.362 705.726 107.113C705.667 106.863 705.694 106.602 705.803 106.37C705.911 106.138 706.095 105.95 706.324 105.836C707.409 105.295 708.565 104.91 709.758 104.691C709.906 104.66 710.059 104.659 710.208 104.688C710.356 104.717 710.497 104.775 710.623 104.859C710.749 104.943 710.857 105.052 710.94 105.178C711.023 105.305 711.08 105.447 711.108 105.595C711.135 105.744 711.133 105.897 711.1 106.045C711.068 106.193 711.006 106.333 710.919 106.457C710.832 106.58 710.721 106.685 710.592 106.765C710.464 106.845 710.321 106.899 710.171 106.923C709.185 107.103 708.23 107.421 707.333 107.867C707.178 107.945 707.006 107.986 706.833 107.987V107.987Z" fill="#C8C5C5"/>
<path d="M734.015 148.216H723.474C723.173 148.216 722.884 148.096 722.671 147.883C722.458 147.67 722.339 147.382 722.339 147.081C722.339 146.78 722.458 146.491 722.671 146.278C722.884 146.065 723.173 145.946 723.474 145.946H734.015C734.316 145.946 734.605 146.065 734.818 146.278C735.03 146.491 735.15 146.78 735.15 147.081C735.15 147.382 735.03 147.67 734.818 147.883C734.605 148.096 734.316 148.216 734.015 148.216Z" fill="#C8C5C5"/>
<path d="M735.607 137.489H700.883C698.284 137.49 695.776 136.536 693.834 134.808C691.892 133.081 690.653 130.7 690.352 128.119C690.05 125.537 690.708 122.935 692.2 120.807C693.692 118.678 695.913 117.172 698.443 116.575C698.642 115.15 699.063 113.765 699.692 112.47C699.757 112.336 699.848 112.216 699.96 112.117C700.072 112.018 700.202 111.942 700.343 111.894C700.484 111.845 700.633 111.825 700.782 111.834C700.931 111.843 701.077 111.881 701.211 111.947C701.345 112.012 701.465 112.103 701.564 112.215C701.663 112.327 701.739 112.457 701.788 112.598C701.836 112.739 701.857 112.888 701.847 113.037C701.838 113.186 701.8 113.332 701.735 113.466C701.104 114.771 700.722 116.181 700.608 117.626C700.586 117.881 700.479 118.121 700.304 118.307C700.129 118.494 699.897 118.616 699.644 118.653C697.562 118.961 695.674 120.046 694.359 121.69C693.045 123.333 692.401 125.414 692.558 127.513C692.715 129.611 693.661 131.573 695.206 133.002C696.75 134.432 698.779 135.224 700.883 135.218H735.607C737.709 135.22 739.734 134.427 741.276 132.998C742.817 131.569 743.761 129.609 743.918 127.513C744.075 125.417 743.433 123.339 742.122 121.696C740.811 120.053 738.927 118.967 736.848 118.656C736.6 118.619 736.371 118.501 736.197 118.32C736.023 118.139 735.914 117.905 735.886 117.656C735.737 116.27 735.237 114.944 734.434 113.805C733.631 112.666 732.551 111.749 731.295 111.143C730.04 110.536 728.651 110.259 727.26 110.338C725.868 110.416 724.519 110.848 723.34 111.592C723.1 111.743 722.814 111.798 722.535 111.749C722.257 111.699 722.007 111.547 721.835 111.323C720.942 110.162 719.839 109.179 718.584 108.425C718.456 108.348 718.345 108.246 718.256 108.126C718.168 108.006 718.104 107.87 718.068 107.725C718.032 107.58 718.025 107.43 718.048 107.282C718.07 107.135 718.121 106.993 718.198 106.866C718.354 106.608 718.606 106.422 718.898 106.35C719.043 106.314 719.193 106.307 719.341 106.33C719.488 106.352 719.63 106.403 719.757 106.48C720.97 107.21 722.064 108.119 723.004 109.176C724.452 108.446 726.051 108.062 727.673 108.055C729.295 108.047 730.896 108.416 732.352 109.132C733.807 109.849 735.076 110.894 736.059 112.184C737.042 113.474 737.713 114.975 738.017 116.568C740.551 117.159 742.778 118.661 744.276 120.788C745.774 122.915 746.437 125.519 746.139 128.103C745.841 130.687 744.604 133.072 742.662 134.803C740.719 136.533 738.209 137.489 735.607 137.489V137.489Z" fill="#C8C5C5"/>
<path d="M759.134 137.483H724.42C724.119 137.483 723.831 137.363 723.618 137.151C723.405 136.938 723.285 136.649 723.285 136.348C723.285 136.047 723.405 135.758 723.618 135.545C723.831 135.332 724.119 135.213 724.42 135.213H759.134C761.236 135.215 763.261 134.421 764.802 132.993C766.344 131.564 767.289 129.605 767.447 127.509C767.605 125.413 766.964 123.335 765.654 121.691C764.344 120.048 762.461 118.96 760.383 118.647C760.135 118.609 759.907 118.491 759.734 118.31C759.56 118.129 759.452 117.897 759.424 117.648C759.275 116.261 758.774 114.934 757.97 113.794C757.166 112.654 756.084 111.738 754.828 111.131C753.571 110.525 752.181 110.248 750.788 110.328C749.395 110.407 748.046 110.84 746.866 111.586C746.628 111.736 746.342 111.792 746.064 111.743C745.787 111.694 745.537 111.543 745.365 111.32C744.347 109.999 743.062 108.908 741.594 108.117C740.126 107.327 738.507 106.855 736.844 106.733C735.181 106.611 733.511 106.842 731.943 107.41C730.375 107.978 728.944 108.87 727.745 110.029C727.528 110.237 727.238 110.35 726.938 110.344C726.638 110.339 726.352 110.214 726.143 109.998C725.934 109.783 725.82 109.493 725.824 109.192C725.829 108.892 725.952 108.606 726.167 108.396C727.536 107.074 729.158 106.041 730.936 105.362C732.714 104.682 734.612 104.369 736.514 104.442C738.416 104.514 740.284 104.97 742.005 105.783C743.726 106.596 745.265 107.749 746.529 109.172C747.978 108.439 749.578 108.054 751.201 108.045C752.825 108.036 754.428 108.404 755.885 109.121C757.342 109.837 758.612 110.883 759.596 112.174C760.58 113.465 761.251 114.968 761.555 116.562C764.089 117.153 766.317 118.656 767.815 120.783C769.312 122.911 769.975 125.515 769.677 128.1C769.378 130.685 768.14 133.069 766.196 134.8C764.253 136.53 761.741 137.485 759.14 137.483H759.134Z" fill="#C8C5C5"/>
<path d="M470.987 128H443.013C442.214 128 441.447 127.895 440.882 127.707C440.317 127.52 440 127.265 440 127C440 126.735 440.317 126.48 440.882 126.293C441.447 126.105 442.214 126 443.013 126H470.987C471.786 126 472.553 126.105 473.118 126.293C473.683 126.48 474 126.735 474 127C474 127.265 473.683 127.52 473.118 127.707C472.553 127.895 471.786 128 470.987 128Z" fill="#C8C5C5"/>
<path d="M1217.99 78H1190.01C1189.21 78 1188.45 77.8946 1187.88 77.7071C1187.32 77.5196 1187 77.2652 1187 77C1187 76.7348 1187.32 76.4804 1187.88 76.2929C1188.45 76.1054 1189.21 76 1190.01 76H1217.99C1218.79 76 1219.55 76.1054 1220.12 76.2929C1220.68 76.4804 1221 76.7348 1221 77C1221 77.2652 1220.68 77.5196 1220.12 77.7071C1219.55 77.8946 1218.79 78 1217.99 78Z" fill="#C8C5C5"/>
<path d="M675.987 2H648.013C647.214 2 646.447 1.89464 645.882 1.70711C645.317 1.51957 645 1.26522 645 1C645 0.734784 645.317 0.480433 645.882 0.292896C646.447 0.10536 647.214 0 648.013 0H675.987C676.786 0 677.553 0.10536 678.118 0.292896C678.683 0.480433 679 0.734784 679 1C679 1.26522 678.683 1.51957 678.118 1.70711C677.553 1.89464 676.786 2 675.987 2Z" fill="#C8C5C5"/>
<defs>
<clipPath id="clip0">
<rect width="84" height="84" fill="white" transform="translate(0 6)"/>
</clipPath>
</defs>
</svg>
